<svg width="30" height="30" viewBox="0 0 30 30" fill="none" xmlns="http://www.w3.org/2000/svg">
<path d="M7.82886 5.19988C7.94401 5.15964 8.04379 5.08462 8.11439 4.9852C8.18499 4.88579 8.22291 4.7669 8.22291 4.64499C8.22291 4.52308 8.18499 4.40419 8.11439 4.30477C8.04379 4.20536 7.94401 4.13034 7.82886 4.0901L0.962126 0.1297C0.432648 -0.175025 0 0.0761675 0 0.684589V8.61156C0 9.22101 0.432648 9.47118 0.962126 9.16748L7.82886 5.19988Z" fill="#FCBD3F"/>
<path d="M7.82886 15.3392C7.94389 15.2987 8.04351 15.2235 8.11398 15.1241C8.18445 15.0246 8.2223 14.9057 8.2223 14.7838C8.2223 14.6619 8.18445 14.543 8.11398 14.4436C8.04351 14.3441 7.94389 14.2689 7.82886 14.2284L0.962126 10.2701C0.432648 9.96534 0 10.2155 0 10.8239V18.7509C0 19.3634 0.432648 19.6105 0.962126 19.3037L7.82886 15.3392Z" fill="#7F4C9C"/>
<path d="M7.82886 25.4816C7.94388 25.4417 8.04361 25.367 8.11418 25.2678C8.18476 25.1686 8.22268 25.05 8.22268 24.9283C8.22268 24.8066 8.18476 24.6879 8.11418 24.5888C8.04361 24.4896 7.94388 24.4149 7.82886 24.3749L0.962126 20.4114C0.432648 20.1026 0 20.3559 0 20.9663V28.8933C0 29.5017 0.432648 29.754 0.962126 29.4482L7.82886 25.4816Z" fill="#ED4F96"/>
<path d="M8.78481 13.6756C8.78481 14.2881 9.21848 14.5372 9.74796 14.2305L16.6137 10.2701C16.7293 10.2303 16.8296 10.1555 16.9006 10.056C16.9717 9.95653 17.0098 9.83738 17.0098 9.71517C17.0098 9.59297 16.9717 9.47382 16.9006 9.37435C16.8296 9.27487 16.7293 9.20004 16.6137 9.16029L9.74796 5.19989C9.21848 4.89722 8.78481 5.1443 8.78481 5.75581V13.6756Z" fill="#5BC7E4"/>
<path d="M8.78481 23.819C8.78481 24.4305 9.21848 24.6786 9.74796 24.3749L16.6137 20.4114C16.7297 20.3719 16.8304 20.2971 16.9017 20.1975C16.973 20.0979 17.0113 19.9785 17.0113 19.856C17.0113 19.7336 16.973 19.6142 16.9017 19.5146C16.8304 19.415 16.7297 19.3402 16.6137 19.3006L9.74796 15.3392C9.21848 15.0304 8.78481 15.2836 8.78481 15.8941V23.819Z" fill="#D8E046"/>
<path d="M17.5748 18.7478C17.5748 19.3603 18.0053 19.6074 18.5369 19.3006L25.4016 15.3392C25.5176 15.2997 25.6183 15.2249 25.6896 15.1253C25.7609 15.0257 25.7992 14.9063 25.7992 14.7838C25.7992 14.6613 25.7609 14.5419 25.6896 14.4423C25.6183 14.3427 25.5176 14.2679 25.4016 14.2284L18.542 10.2701C18.0105 9.96122 17.5799 10.2155 17.5799 10.826L17.5748 18.7478Z" fill="#E31E2D"/>
</svg>
